<?xml version="1.0" encoding="utf-8"?>
<!-- Generator: Adobe Illustrator 26.0.3, SVG Export Plug-In . SVG Version: 6.00 Build 0)  -->
<svg version="1.1" id="레이어_1" xmlns="http://www.w3.org/2000/svg" xmlns:xlink="http://www.w3.org/1999/xlink" x="0px"
	 y="0px" viewBox="0 0 309 37" style="enable-background:new 0 0 309 37;" xml:space="preserve">
<style type="text/css">
	.st0{fill:#1569E8;}
</style>
<g>
	<path class="st0" d="M19.1,1v5.1H6.3v23.6h13.2v5.1H0.3V1H19.1z M21.6,35.3V0.1h6V15l3.7-1.3V0.1h6.1v35.1h-6.1V19.4l-3.7,1.3v14.6
		H21.6z"/>
	<path class="st0" d="M41.1,24.1h35.1v5.1H61.9v7.3h-6.6v-7.3H41.1V24.1z M67.5,6.1H43.1V1h31v19.9h-6.6V6.1z"/>
	<path class="st0" d="M78.8,8.8c0-1.3,0.3-2.6,0.8-3.7c0.5-1.1,1.3-1.9,2.4-2.7c1-0.7,2.3-1.3,3.8-1.7c1.4-0.4,3.1-0.6,4.9-0.6
		c1.8,0,3.4,0.2,5,0.6c1.4,0.4,2.7,1,3.8,1.7c1,0.8,1.8,1.6,2.4,2.7c0.5,1.1,0.8,2.3,0.8,3.7s-0.3,2.6-0.8,3.6
		c-0.6,1.1-1.4,2-2.4,2.7c-1.1,0.8-2.4,1.3-3.8,1.7c-1.5,0.4-3.2,0.6-5,0.6c-1.8,0-3.5-0.2-4.9-0.6c-1.5-0.4-2.8-1-3.8-1.7
		c-1.1-0.7-1.9-1.6-2.4-2.7C79.1,11.3,78.8,10.1,78.8,8.8z M107.2,25.6v-1.8H81.8v-4.4h31.9v10.5H88.4v1.8h25.8v4.4H81.8V25.6H107.2
		z M90.8,12.2c1.5,0,2.8-0.3,3.9-0.9c1-0.6,1.5-1.4,1.5-2.6c0-1.2-0.5-2.1-1.5-2.6c-1.1-0.5-2.4-0.8-3.9-0.8c-1.6,0-2.8,0.3-3.8,0.8
		c-1.1,0.6-1.6,1.5-1.6,2.6c0,1.1,0.5,2,1.6,2.6C88,11.9,89.2,12.2,90.8,12.2z M113.8,0.1v17.3h-6.6V0.1H113.8z"/>
	<path class="st0" d="M141.3,1v5.1h-8.6v9.7c0,2.1-0.2,4.1-0.6,5.9l10.3,7.9l-3.2,4.9l-9.3-7.2c-1.1,1.6-2.4,3.1-4.1,4.2
		c-1.7,1.2-3.7,2.2-6.2,3l-2.9-4.9c1.7-0.6,3.1-1.2,4.3-2c1.2-0.7,2.1-1.6,2.9-2.7c0.8-1.1,1.3-2.3,1.7-3.8c0.3-1.5,0.5-3.3,0.5-5.4
		V6.1h-8.1V1H141.3z M150.9,13.3h3.7v5.1h-3.7v16.8h-6.6V0.1h6.6V13.3z"/>
	<path class="st0" d="M156.9,6.1V1h21.4v19.6h-14.8v9.1h15.6v5.1h-22.2V15.5h14.8V6.1H156.9z M190.6,35.3H184V0.1h6.6V35.3z"/>
	<path class="st0" d="M218.1,0.6v5.1h-8.6v2c0,0.3,0,0.7,0,1c0,0.3-0.1,0.7-0.1,1l9.4,5.6l-3.2,4.5l-8.6-5.2
		c-2.1,2.4-5.7,4.2-10.5,5.3l-2.8-4.6c1.5-0.3,2.9-0.7,4.1-1.1c1.1-0.4,2.1-0.9,2.9-1.5c0.8-0.6,1.3-1.3,1.8-2.1
		c0.4-0.8,0.6-1.8,0.6-2.9v-2h-8.1V0.6H218.1z M213.1,36.9c-2.6,0-5-0.2-7.1-0.5c-2.1-0.3-3.8-0.8-5.3-1.4c-1.5-0.7-2.6-1.5-3.3-2.4
		c-0.8-1-1.1-2.1-1.1-3.4c0-1.3,0.4-2.4,1.1-3.4c0.8-0.9,1.8-1.7,3.3-2.4c1.4-0.6,3.2-1.1,5.3-1.4c2.1-0.3,4.4-0.5,7.1-0.5
		c2.6,0,5,0.2,7.1,0.5c2.1,0.3,3.8,0.8,5.3,1.4c1.4,0.7,2.5,1.5,3.3,2.4c0.8,1,1.1,2.1,1.1,3.4c0,1.3-0.4,2.4-1.1,3.4
		c-0.8,0.9-1.8,1.7-3.3,2.4c-1.5,0.6-3.2,1.1-5.3,1.4C218.1,36.8,215.7,36.9,213.1,36.9z M213.1,31.8c3.2,0,5.7-0.2,7.5-0.6
		c1.8-0.4,2.6-1,2.6-2s-0.9-1.6-2.6-2c-1.8-0.4-4.3-0.6-7.5-0.6c-3.2,0-5.7,0.2-7.5,0.6c-1.8,0.4-2.7,1-2.7,2s0.9,1.6,2.7,2
		C207.4,31.6,209.9,31.8,213.1,31.8z M229,0.1V21h-6.6v-9.6l-5.3,1.2V7.3l5.3-1.2v-6H229z"/>
	<path class="st0" d="M233.2,30.1h14.2v-5.7h-12.2V1h6.6v6.9h17.8V1h6.6v23.5h-12.2v5.7h14.2v5.1h-35.1V30.1z M259.7,13h-17.8v6.3
		h17.8V13z"/>
	<path class="st0" d="M292.7,0.6v18.9h-20.5V0.6H292.7z M289.3,36.9c-2.5,0-4.8-0.2-6.8-0.5c-2-0.3-3.7-0.8-5.1-1.4
		c-1.4-0.7-2.5-1.5-3.2-2.4c-0.8-1-1.1-2.1-1.1-3.4c0-1.3,0.3-2.4,1.1-3.4c0.7-0.9,1.8-1.7,3.2-2.4c1.3-0.6,3.1-1.1,5.1-1.4
		c2-0.3,4.2-0.5,6.8-0.5s4.8,0.2,6.8,0.5c2,0.3,3.7,0.8,5.1,1.4c1.3,0.7,2.4,1.5,3.2,2.4c0.7,1,1.1,2.1,1.1,3.4
		c0,1.3-0.4,2.4-1.1,3.4c-0.8,0.9-1.8,1.7-3.2,2.4c-1.4,0.6-3.1,1.1-5.1,1.4C294.1,36.8,291.9,36.9,289.3,36.9z M286.2,14.4V5.7
		h-7.4v8.7H286.2z M289.3,31.8c3,0,5.3-0.2,7-0.6c1.7-0.4,2.5-1,2.5-2s-0.8-1.6-2.5-2c-1.7-0.4-4-0.6-7-0.6c-3,0-5.3,0.2-7,0.6
		c-1.7,0.4-2.5,1-2.5,2s0.8,1.6,2.5,2C284,31.6,286.3,31.8,289.3,31.8z M304.6,11.9v8.7H298V0.1h6.6v6.6h3.7v5.1H304.6z"/>
</g>
</svg>
